REM DIRINDEX 1\2\4\8,1\2\4\9,1\2\4\10,1\2\5\11,1\2\5\12,1\2\5\13,1\2\5\14,1\2\5\15,1\3\6\16,1\3\6\17,1\3\6\18,1\3\7\19,1\3\7\20,1\3\7\21,1\3\7\22,1\3\7\23
REM DIRNAME "folder01","folder02","folder03","folder04","folder05","folder06","folder07","folder08","folder09","folder10","folder11","folder12","folder13","folder14","folder15","folder16","folder17","folder18","folder19","folder20","folder21","folder22","folder23"
TITLE ""
FILE "LR_black_phrase_09.mp3" MP3
  TRACK 01 AUDIO
    TITLE "0:"
    INDEX 01 00:00:00
  TRACK 02 AUDIO
    TITLE "11:cjc171_07001"
    INDEX 01 00:00:14
  TRACK 03 AUDIO
    TITLE "0:"
    INDEX 01 00:01:41
  TRACK 04 AUDIO
    TITLE "12:cjc171_07002"
    INDEX 01 00:02:07
  TRACK 05 AUDIO
    TITLE "0:"
    INDEX 01 00:05:00
  TRACK 06 AUDIO
    TITLE "13:cjc171_07003"
    INDEX 01 00:05:74
  TRACK 07 AUDIO
    TITLE "0:"
    INDEX 01 00:07:55
  TRACK 08 AUDIO
    TITLE "14:cjc171_07004"
    INDEX 01 00:08:18
  TRACK 09 AUDIO
    TITLE "0:"
    INDEX 01 00:10:22
  TRACK 10 AUDIO
    TITLE "15:cjc171_07005"
    INDEX 01 00:10:50
  TRACK 11 AUDIO
    TITLE "0:"
    INDEX 01 00:12:55
  TRACK 12 AUDIO
    TITLE "11:cjc171_07006"
    INDEX 01 00:13:56
  TRACK 13 AUDIO
    TITLE "0:"
    INDEX 01 00:14:73
  TRACK 14 AUDIO
    TITLE "12:cjc171_07007"
    INDEX 01 00:15:37
  TRACK 15 AUDIO
    TITLE "0:"
    INDEX 01 00:16:60
  TRACK 16 AUDIO
    TITLE "13:cjc171_07008"
    INDEX 01 00:17:60
  TRACK 17 AUDIO
    TITLE "0:"
    INDEX 01 00:19:15
  TRACK 18 AUDIO
    TITLE "14:cjc171_07009"
    INDEX 01 00:19:55
  TRACK 19 AUDIO
    TITLE "0:"
    INDEX 01 00:21:40
  TRACK 20 AUDIO
    TITLE "15:cjc171_07010"
    INDEX 01 00:21:67
  TRACK 21 AUDIO
    TITLE "0:"
    INDEX 01 00:23:52
  TRACK 22 AUDIO
    TITLE "11:cjc171_07011"
    INDEX 01 00:24:54
  TRACK 23 AUDIO
    TITLE "0:"
    INDEX 01 00:26:02
  TRACK 24 AUDIO
    TITLE "12:cjc171_07012"
    INDEX 01 00:26:41
  TRACK 25 AUDIO
    TITLE "0:"
    INDEX 01 00:28:60
  TRACK 26 AUDIO
    TITLE "13:cjc171_07013"
    INDEX 01 00:29:57
  TRACK 27 AUDIO
    TITLE "0:"
    INDEX 01 00:31:48
  TRACK 28 AUDIO
    TITLE "14:cjc171_07014"
    INDEX 01 00:32:14
  TRACK 29 AUDIO
    TITLE "0:"
    INDEX 01 00:34:19
  TRACK 30 AUDIO
    TITLE "15:cjc171_07015"
    INDEX 01 00:34:50
  TRACK 31 AUDIO
    TITLE "0:"
    INDEX 01 00:36:57
  TRACK 32 AUDIO
    TITLE "11:cjc171_07016"
    INDEX 01 00:37:62
  TRACK 33 AUDIO
    TITLE "0:"
    INDEX 01 00:38:68
  TRACK 34 AUDIO
    TITLE "12:cjc171_07017"
    INDEX 01 00:39:34
  TRACK 35 AUDIO
    TITLE "0:"
    INDEX 01 00:40:41
  TRACK 36 AUDIO
    TITLE "13:cjc171_07018"
    INDEX 01 00:41:39
  TRACK 37 AUDIO
    TITLE "0:"
    INDEX 01 00:43:28
  TRACK 38 AUDIO
    TITLE "14:cjc171_07019"
    INDEX 01 00:43:67
  TRACK 39 AUDIO
    TITLE "0:"
    INDEX 01 00:46:14
  TRACK 40 AUDIO
    TITLE "15:cjc171_07020"
    INDEX 01 00:46:44
  TRACK 41 AUDIO
    TITLE "0:"
    INDEX 01 00:48:68
  TRACK 42 AUDIO
    TITLE "11:cjc171_07021"
    INDEX 01 00:49:71
  TRACK 43 AUDIO
    TITLE "0:"
    INDEX 01 00:51:16
  TRACK 44 AUDIO
    TITLE "12:cjc171_07022"
    INDEX 01 00:51:57
  TRACK 45 AUDIO
    TITLE "0:"
    INDEX 01 00:54:39
  TRACK 46 AUDIO
    TITLE "13:cjc171_07023"
    INDEX 01 00:55:39
  TRACK 47 AUDIO
    TITLE "0:"
    INDEX 01 00:58:12
  TRACK 48 AUDIO
    TITLE "14:cjc171_07024"
    INDEX 01 00:58:49
  TRACK 49 AUDIO
    TITLE "0:"
    INDEX 01 01:01:20
  TRACK 50 AUDIO
    TITLE "15:cjc171_07025"
    INDEX 01 01:01:49
  TRACK 51 AUDIO
    TITLE "0:"
    INDEX 01 01:04:20
  TRACK 52 AUDIO
    TITLE "11:cjc171_07026"
    INDEX 01 01:05:25
  TRACK 53 AUDIO
    TITLE "0:"
    INDEX 01 01:06:31
  TRACK 54 AUDIO
    TITLE "12:cjc171_07027"
    INDEX 01 01:06:66
  TRACK 55 AUDIO
    TITLE "0:"
    INDEX 01 01:10:09
  TRACK 56 AUDIO
    TITLE "13:cjc171_07028"
    INDEX 01 01:11:10
  TRACK 57 AUDIO
    TITLE "0:"
    INDEX 01 01:12:59
  TRACK 58 AUDIO
    TITLE "14:cjc171_07029"
    INDEX 01 01:13:23
  TRACK 59 AUDIO
    TITLE "0:"
    INDEX 01 01:15:02
  TRACK 60 AUDIO
    TITLE "15:cjc171_07030"
    INDEX 01 01:15:34
  TRACK 61 AUDIO
    TITLE "0:"
    INDEX 01 01:17:13
  TRACK 62 AUDIO
    TITLE "11:cjc171_07031"
    INDEX 01 01:18:16
  TRACK 63 AUDIO
    TITLE "0:"
    INDEX 01 01:19:53
  TRACK 64 AUDIO
    TITLE "12:cjc171_07032"
    INDEX 01 01:20:15
  TRACK 65 AUDIO
    TITLE "0:"
    INDEX 01 01:21:52
  TRACK 66 AUDIO
    TITLE "13:cjc171_07033"
    INDEX 01 01:22:51
  TRACK 67 AUDIO
    TITLE "0:"
    INDEX 01 01:24:17
  TRACK 68 AUDIO
    TITLE "14:cjc171_07034"
    INDEX 01 01:24:56
  TRACK 69 AUDIO
    TITLE "0:"
    INDEX 01 01:26:59
  TRACK 70 AUDIO
    TITLE "15:cjc171_07035"
    INDEX 01 01:27:15
  TRACK 71 AUDIO
    TITLE "0:"
    INDEX 01 01:29:20
  TRACK 72 AUDIO
    TITLE "11:cjc171_07036"
    INDEX 01 01:30:25
  TRACK 73 AUDIO
    TITLE "0:"
    INDEX 01 01:31:50
  TRACK 74 AUDIO
    TITLE "12:cjc171_07037"
    INDEX 01 01:32:16
  TRACK 75 AUDIO
    TITLE "0:"
    INDEX 01 01:33:37
  TRACK 76 AUDIO
    TITLE "13:cjc171_07038"
    INDEX 01 01:34:39
  TRACK 77 AUDIO
    TITLE "0:"
    INDEX 01 01:35:56
  TRACK 78 AUDIO
    TITLE "14:cjc171_07039"
    INDEX 01 01:36:20
  TRACK 79 AUDIO
    TITLE "0:"
    INDEX 01 01:38:23
  TRACK 80 AUDIO
    TITLE "15:cjc171_07040"
    INDEX 01 01:38:52
  TRACK 81 AUDIO
    TITLE "0:"
    INDEX 01 01:40:55
  TRACK 82 AUDIO
    TITLE "11:cjc171_07041"
    INDEX 01 01:41:60
  TRACK 83 AUDIO
    TITLE "0:"
    INDEX 01 01:42:64
  TRACK 84 AUDIO
    TITLE "12:cjc171_07042"
    INDEX 01 01:43:30
  TRACK 85 AUDIO
    TITLE "0:"
    INDEX 01 01:46:07
  TRACK 86 AUDIO
    TITLE "13:cjc171_07043"
    INDEX 01 01:47:04
  TRACK 87 AUDIO
    TITLE "0:"
    INDEX 01 01:49:03
  TRACK 88 AUDIO
    TITLE "14:cjc171_07044"
    INDEX 01 01:49:42
  TRACK 89 AUDIO
    TITLE "0:"
    INDEX 01 01:51:14
  TRACK 90 AUDIO
    TITLE "15:cjc171_07045"
    INDEX 01 01:51:41
  TRACK 91 AUDIO
    TITLE "0:"
    INDEX 01 01:53:15
  TRACK 92 AUDIO
    TITLE "11:cjc171_07046"
    INDEX 01 01:54:14
  TRACK 93 AUDIO
    TITLE "0:"
    INDEX 01 01:55:39
  TRACK 94 AUDIO
    TITLE "12:cjc171_07047"
    INDEX 01 01:56:01
  TRACK 95 AUDIO
    TITLE "0:"
    INDEX 01 01:58:28
  TRACK 96 AUDIO
    TITLE "13:cjc171_07048"
    INDEX 01 01:59:27
  TRACK 97 AUDIO
    TITLE "0:"
    INDEX 01 02:01:34
  TRACK 98 AUDIO
    TITLE "14:cjc171_07049"
    INDEX 01 02:01:71
  TRACK 99 AUDIO
    TITLE "0:"
    INDEX 01 02:04:38
  TRACK 100 AUDIO
    TITLE "15:cjc171_07050"
    INDEX 01 02:04:67
  TRACK 101 AUDIO
    TITLE "0:"
    INDEX 01 02:07:32
  TRACK 102 AUDIO
    TITLE "11:cjc171_07051"
    INDEX 01 02:08:30
  TRACK 103 AUDIO
    TITLE "0:"
    INDEX 01 02:09:65
  TRACK 104 AUDIO
    TITLE "12:cjc171_07052"
    INDEX 01 02:10:19
  TRACK 105 AUDIO
    TITLE "0:"
    INDEX 01 02:12:32
  TRACK 106 AUDIO
    TITLE "13:cjc171_07053"
    INDEX 01 02:13:31
  TRACK 107 AUDIO
    TITLE "0:"
    INDEX 01 02:15:46
  TRACK 108 AUDIO
    TITLE "14:cjc171_07054"
    INDEX 01 02:16:06
  TRACK 109 AUDIO
    TITLE "0:"
    INDEX 01 02:19:06
  TRACK 110 AUDIO
    TITLE "15:cjc171_07055"
    INDEX 01 02:19:34
  TRACK 111 AUDIO
    TITLE "0:"
    INDEX 01 02:22:34
  TRACK 112 AUDIO
    TITLE "11:cjc171_07056"
    INDEX 01 02:23:33
  TRACK 113 AUDIO
    TITLE "0:"
    INDEX 01 02:24:62
  TRACK 114 AUDIO
    TITLE "12:cjc171_07057"
    INDEX 01 02:25:24
  TRACK 115 AUDIO
    TITLE "0:"
    INDEX 01 02:26:34
  TRACK 116 AUDIO
    TITLE "13:cjc171_07058"
    INDEX 01 02:27:31
  TRACK 117 AUDIO
    TITLE "0:"
    INDEX 01 02:29:48
  TRACK 118 AUDIO
    TITLE "14:cjc171_07059"
    INDEX 01 02:30:08
  TRACK 119 AUDIO
    TITLE "0:"
    INDEX 01 02:32:42
  TRACK 120 AUDIO
    TITLE "15:cjc171_07060"
    INDEX 01 02:32:62
  TRACK 121 AUDIO
    TITLE "0:"
    INDEX 01 02:35:23
  TRACK 122 AUDIO
    TITLE "11:cjc171_07061"
    INDEX 01 02:36:16
  TRACK 123 AUDIO
    TITLE "0:"
    INDEX 01 02:37:39
  TRACK 124 AUDIO
    TITLE "12:cjc171_07062"
    INDEX 01 02:38:00
  TRACK 125 AUDIO
    TITLE "0:"
    INDEX 01 02:40:59
  TRACK 126 AUDIO
    TITLE "13:cjc171_07063"
    INDEX 01 02:41:57
  TRACK 127 AUDIO
    TITLE "0:"
    INDEX 01 02:44:32
  TRACK 128 AUDIO
    TITLE "14:cjc171_07064"
    INDEX 01 02:44:67
  TRACK 129 AUDIO
    TITLE "0:"
    INDEX 01 02:47:34
  TRACK 130 AUDIO
    TITLE "15:cjc171_07065"
    INDEX 01 02:47:63
  TRACK 131 AUDIO
    TITLE "0:"
    INDEX 01 02:50:38
  TRACK 132 AUDIO
    TITLE "11:cjc171_07066"
    INDEX 01 02:51:32
  TRACK 133 AUDIO
    TITLE "0:"
    INDEX 01 02:52:49
  TRACK 134 AUDIO
    TITLE "12:cjc171_07067"
    INDEX 01 02:53:11
  TRACK 135 AUDIO
    TITLE "0:"
    INDEX 01 02:55:65
  TRACK 136 AUDIO
    TITLE "13:cjc171_07068"
    INDEX 01 02:56:66
  TRACK 137 AUDIO
    TITLE "0:"
    INDEX 01 02:58:55
  TRACK 138 AUDIO
    TITLE "14:cjc171_07069"
    INDEX 01 02:59:15
  TRACK 139 AUDIO
    TITLE "0:"
    INDEX 01 03:00:66
  TRACK 140 AUDIO
    TITLE "15:cjc171_07070"
    INDEX 01 03:01:16
  TRACK 141 AUDIO
    TITLE "0:"
    INDEX 01 03:02:69
  TRACK 142 AUDIO
    TITLE "11:cjc171_07071"
    INDEX 01 03:03:72
  TRACK 143 AUDIO
    TITLE "0:"
    INDEX 01 03:05:10
  TRACK 144 AUDIO
    TITLE "12:cjc171_07072"
    INDEX 01 03:05:45
  TRACK 145 AUDIO
    TITLE "0:"
    INDEX 01 03:06:49
  TRACK 146 AUDIO
    TITLE "13:cjc171_07073"
    INDEX 01 03:07:46
  TRACK 147 AUDIO
    TITLE "0:"
    INDEX 01 03:09:39
  TRACK 148 AUDIO
    TITLE "14:cjc171_07074"
    INDEX 01 03:10:00
  TRACK 149 AUDIO
    TITLE "0:"
    INDEX 01 03:11:66
  TRACK 150 AUDIO
    TITLE "15:cjc171_07075"
    INDEX 01 03:12:10
  TRACK 151 AUDIO
    TITLE "0:"
    INDEX 01 03:14:01
  TRACK 152 AUDIO
    TITLE "11:cjc171_07076"
    INDEX 01 03:14:70
  TRACK 153 AUDIO
    TITLE "0:"
    INDEX 01 03:16:22
  TRACK 154 AUDIO
    TITLE "12:cjc171_07077"
    INDEX 01 03:16:57
  TRACK 155 AUDIO
    TITLE "0:"
    INDEX 01 03:19:20
  TRACK 156 AUDIO
    TITLE "13:cjc171_07078"
    INDEX 01 03:20:14
  TRACK 157 AUDIO
    TITLE "0:"
    INDEX 01 03:21:60
  TRACK 158 AUDIO
    TITLE "14:cjc171_07079"
    INDEX 01 03:22:19
  TRACK 159 AUDIO
    TITLE "0:"
    INDEX 01 03:24:13
  TRACK 160 AUDIO
    TITLE "15:cjc171_07080"
    INDEX 01 03:24:31
  TRACK 161 AUDIO
    TITLE "0:"
    INDEX 01 03:26:22
  TRACK 162 AUDIO
    TITLE "11:cjc171_07081"
    INDEX 01 03:27:18
  TRACK 163 AUDIO
    TITLE "0:"
    INDEX 01 03:28:66
  TRACK 164 AUDIO
    TITLE "12:cjc171_07082"
    INDEX 01 03:29:24
  TRACK 165 AUDIO
    TITLE "0:"
    INDEX 01 03:30:24
  TRACK 166 AUDIO
    TITLE "13:cjc171_07083"
    INDEX 01 03:31:23
  TRACK 167 AUDIO
    TITLE "0:"
    INDEX 01 03:33:63
  TRACK 168 AUDIO
    TITLE "14:cjc171_07084"
    INDEX 01 03:34:26
  TRACK 169 AUDIO
    TITLE "0:"
    INDEX 01 03:36:73
  TRACK 170 AUDIO
    TITLE "15:cjc171_07085"
    INDEX 01 03:37:28
  TRACK 171 AUDIO
    TITLE "0:"
    INDEX 01 03:40:01
  TRACK 172 AUDIO
    TITLE "11:cjc171_07086"
    INDEX 01 03:41:02
  TRACK 173 AUDIO
    TITLE "0:"
    INDEX 01 03:42:23
  TRACK 174 AUDIO
    TITLE "12:cjc171_07087"
    INDEX 01 03:42:60
  TRACK 175 AUDIO
    TITLE "0:"
    INDEX 01 03:45:35
  TRACK 176 AUDIO
    TITLE "13:cjc171_07088"
    INDEX 01 03:46:35
  TRACK 177 AUDIO
    TITLE "0:"
    INDEX 01 03:49:55
  TRACK 178 AUDIO
    TITLE "14:cjc171_07089"
    INDEX 01 03:50:15
  TRACK 179 AUDIO
    TITLE "0:"
    INDEX 01 03:52:73
  TRACK 180 AUDIO
    TITLE "15:cjc171_07090"
    INDEX 01 03:53:21
  TRACK 181 AUDIO
    TITLE "0:"
    INDEX 01 03:56:10
  TRACK 182 AUDIO
    TITLE "11:cjc171_07091"
    INDEX 01 03:57:07
  TRACK 183 AUDIO
    TITLE "0:"
    INDEX 01 03:58:30
  TRACK 184 AUDIO
    TITLE "12:cjc171_07092"
    INDEX 01 03:58:67
  TRACK 185 AUDIO
    TITLE "0:"
    INDEX 01 03:59:65
  TRACK 186 AUDIO
    TITLE "13:cjc171_07093"
    INDEX 01 04:00:62
  TRACK 187 AUDIO
    TITLE "0:"
    INDEX 01 04:02:38
  TRACK 188 AUDIO
    TITLE "14:cjc171_07094"
    INDEX 01 04:02:73
  TRACK 189 AUDIO
    TITLE "0:"
    INDEX 01 04:05:09
  TRACK 190 AUDIO
    TITLE "15:cjc171_07095"
    INDEX 01 04:05:28
  TRACK 191 AUDIO
    TITLE "0:"
    INDEX 01 04:07:39
  TRACK 192 AUDIO
    TITLE "11:cjc171_07096"
    INDEX 01 04:08:32
  TRACK 193 AUDIO
    TITLE "0:"
    INDEX 01 04:09:40
  TRACK 194 AUDIO
    TITLE "12:cjc171_07097"
    INDEX 01 04:10:04
  TRACK 195 AUDIO
    TITLE "0:"
    INDEX 01 04:12:40
  TRACK 196 AUDIO
    TITLE "13:cjc171_07098"
    INDEX 01 04:13:37
  TRACK 197 AUDIO
    TITLE "0:"
    INDEX 01 04:15:52
  TRACK 198 AUDIO
    TITLE "14:cjc171_07099"
    INDEX 01 04:16:10
  TRACK 199 AUDIO
    TITLE "0:"
    INDEX 01 04:18:50
  TRACK 200 AUDIO
    TITLE "15:cjc171_07100"
    INDEX 01 04:18:70
  TRACK 201 AUDIO
    TITLE "0:"
    INDEX 01 04:21:35
  TRACK 202 AUDIO
    TITLE "11:cjc171_07101"
    INDEX 01 04:22:32
  TRACK 203 AUDIO
    TITLE "0:"
    INDEX 01 04:23:57
  TRACK 204 AUDIO
    TITLE "12:cjc171_07102"
    INDEX 01 04:24:18
  TRACK 205 AUDIO
    TITLE "0:"
    INDEX 01 04:25:23
  TRACK 206 AUDIO
    TITLE "13:cjc171_07103"
    INDEX 01 04:26:22
  TRACK 207 AUDIO
    TITLE "0:"
    INDEX 01 04:28:15
  TRACK 208 AUDIO
    TITLE "14:cjc171_07104"
    INDEX 01 04:28:47
  TRACK 209 AUDIO
    TITLE "0:"
    INDEX 01 04:30:32
  TRACK 210 AUDIO
    TITLE "15:cjc171_07105"
    INDEX 01 04:30:52
  TRACK 211 AUDIO
    TITLE "0:"
    INDEX 01 04:32:37
  TRACK 212 AUDIO
    TITLE "11:cjc171_07106"
    INDEX 01 04:33:40
  TRACK 213 AUDIO
    TITLE "0:"
    INDEX 01 04:34:59
  TRACK 214 AUDIO
    TITLE "12:cjc171_07107"
    INDEX 01 04:35:23
  TRACK 215 AUDIO
    TITLE "0:"
    INDEX 01 04:38:10
  TRACK 216 AUDIO
    TITLE "13:cjc171_07108"
    INDEX 01 04:39:05
  TRACK 217 AUDIO
    TITLE "0:"
    INDEX 01 04:41:04
  TRACK 218 AUDIO
    TITLE "14:cjc171_07109"
    INDEX 01 04:41:42
  TRACK 219 AUDIO
    TITLE "0:"
    INDEX 01 04:43:39
  TRACK 220 AUDIO
    TITLE "15:cjc171_07110"
    INDEX 01 04:43:66
  TRACK 221 AUDIO
    TITLE "0:"
    INDEX 01 04:45:61
  TRACK 222 AUDIO
    TITLE "11:cjc171_07111"
    INDEX 01 04:46:62
  TRACK 223 AUDIO
    TITLE "0:"
    INDEX 01 04:47:72
  TRACK 224 AUDIO
    TITLE "12:cjc171_07112"
    INDEX 01 04:48:36
  TRACK 225 AUDIO
    TITLE "0:"
    INDEX 01 04:50:58
  TRACK 226 AUDIO
    TITLE "13:cjc171_07113"
    INDEX 01 04:51:58
  TRACK 227 AUDIO
    TITLE "0:"
    INDEX 01 04:53:33
  TRACK 228 AUDIO
    TITLE "14:cjc171_07114"
    INDEX 01 04:53:72
  TRACK 229 AUDIO
    TITLE "0:"
    INDEX 01 04:55:55
  TRACK 230 AUDIO
    TITLE "15:cjc171_07115"
    INDEX 01 04:56:10
  TRACK 231 AUDIO
    TITLE "0:"
    INDEX 01 04:57:68
  TRACK 232 AUDIO
    TITLE "11:cjc171_07116"
    INDEX 01 04:58:71
  TRACK 233 AUDIO
    TITLE "0:"
    INDEX 01 05:00:12
  TRACK 234 AUDIO
    TITLE "12:cjc171_07117"
    INDEX 01 05:00:53
  TRACK 235 AUDIO
    TITLE "0:"
    INDEX 01 05:02:61
  TRACK 236 AUDIO
    TITLE "13:cjc171_07118"
    INDEX 01 05:03:59
  TRACK 237 AUDIO
    TITLE "0:"
    INDEX 01 05:07:17
  TRACK 238 AUDIO
    TITLE "14:cjc171_07119"
    INDEX 01 05:07:57
  TRACK 239 AUDIO
    TITLE "0:"
    INDEX 01 05:10:59
  TRACK 240 AUDIO
    TITLE "15:cjc171_07120"
    INDEX 01 05:11:15
  TRACK 241 AUDIO
    TITLE "0:"
    INDEX 01 05:14:18
  TRACK 242 AUDIO
    TITLE "11:cjc171_07121"
    INDEX 01 05:15:19
  TRACK 243 AUDIO
    TITLE "0:"
    INDEX 01 05:16:36
  TRACK 244 AUDIO
    TITLE "12:cjc171_07122"
    INDEX 01 05:17:00
  TRACK 245 AUDIO
    TITLE "0:"
    INDEX 01 05:19:42
  TRACK 246 AUDIO
    TITLE "13:cjc171_07123"
    INDEX 01 05:20:44
  TRACK 247 AUDIO
    TITLE "0:"
    INDEX 01 05:22:48
  TRACK 248 AUDIO
    TITLE "14:cjc171_07124"
    INDEX 01 05:23:13
  TRACK 249 AUDIO
    TITLE "0:"
    INDEX 01 05:25:49
  TRACK 250 AUDIO
    TITLE "15:cjc171_07125"
    INDEX 01 05:26:03
  TRACK 251 AUDIO
    TITLE "0:"
    INDEX 01 05:28:39
  TRACK 252 AUDIO
    TITLE "11:cjc171_07126"
    INDEX 01 05:29:43
  TRACK 253 AUDIO
    TITLE "0:"
    INDEX 01 05:30:64
  TRACK 254 AUDIO
    TITLE "12:cjc171_07127"
    INDEX 01 05:31:30
  TRACK 255 AUDIO
    TITLE "0:"
    INDEX 01 05:33:48
  TRACK 256 AUDIO
    TITLE "13:cjc171_07128"
    INDEX 01 05:34:48
  TRACK 257 AUDIO
    TITLE "0:"
    INDEX 01 05:37:38
  TRACK 258 AUDIO
    TITLE "14:cjc171_07129"
    INDEX 01 05:38:04
  TRACK 259 AUDIO
    TITLE "0:"
    INDEX 01 05:40:68
  TRACK 260 AUDIO
    TITLE "15:cjc171_07130"
    INDEX 01 05:41:22
  TRACK 261 AUDIO
    TITLE "0:"
    INDEX 01 05:44:11
  TRACK 262 AUDIO
    TITLE "11:cjc171_07131"
    INDEX 01 05:45:16
  TRACK 263 AUDIO
    TITLE "0:"
    INDEX 01 05:46:35
  TRACK 264 AUDIO
    TITLE "12:cjc171_07132"
    INDEX 01 05:46:74
  TRACK 265 AUDIO
    TITLE "0:"
    INDEX 01 05:48:32
  TRACK 266 AUDIO
    TITLE "13:cjc171_07133"
    INDEX 01 05:49:30
  TRACK 267 AUDIO
    TITLE "0:"
    INDEX 01 05:52:02
  TRACK 268 AUDIO
    TITLE "14:cjc171_07134"
    INDEX 01 05:52:44
  TRACK 269 AUDIO
    TITLE "0:"
    INDEX 01 05:55:01
  TRACK 270 AUDIO
    TITLE "15:cjc171_07135"
    INDEX 01 05:55:30
  TRACK 271 AUDIO
    TITLE "0:"
    INDEX 01 05:57:64
  TRACK 272 AUDIO
    TITLE "11:cjc171_07136"
    INDEX 01 05:58:68
  TRACK 273 AUDIO
    TITLE "0:"
    INDEX 01 06:00:08
  TRACK 274 AUDIO
    TITLE "12:cjc171_07137"
    INDEX 01 06:00:47
  TRACK 275 AUDIO
    TITLE "0:"
    INDEX 01 06:03:04
  TRACK 276 AUDIO
    TITLE "13:cjc171_07138"
    INDEX 01 06:04:08
  TRACK 277 AUDIO
    TITLE "0:"
    INDEX 01 06:06:01
  TRACK 278 AUDIO
    TITLE "14:cjc171_07139"
    INDEX 01 06:06:40
  TRACK 279 AUDIO
    TITLE "0:"
    INDEX 01 06:08:50
  TRACK 280 AUDIO
    TITLE "15:cjc171_07140"
    INDEX 01 06:09:05
  TRACK 281 AUDIO
    TITLE "0:"
    INDEX 01 06:11:15
  TRACK 282 AUDIO
    TITLE "11:cjc171_07141"
    INDEX 01 06:12:21
  TRACK 283 AUDIO
    TITLE "0:"
    INDEX 01 06:13:44
  TRACK 284 AUDIO
    TITLE "12:cjc171_07142"
    INDEX 01 06:14:08
  TRACK 285 AUDIO
    TITLE "0:"
    INDEX 01 06:16:24
  TRACK 286 AUDIO
    TITLE "13:cjc171_07143"
    INDEX 01 06:17:22
  TRACK 287 AUDIO
    TITLE "0:"
    INDEX 01 06:19:46
  TRACK 288 AUDIO
    TITLE "14:cjc171_07144"
    INDEX 01 06:20:13
  TRACK 289 AUDIO
    TITLE "0:"
    INDEX 01 06:22:70
  TRACK 290 AUDIO
    TITLE "15:cjc171_07145"
    INDEX 01 06:23:25
  TRACK 291 AUDIO
    TITLE "0:"
    INDEX 01 06:26:07
  TRACK 292 AUDIO
    TITLE "11:cjc171_07146"
    INDEX 01 06:27:13
  TRACK 293 AUDIO
    TITLE "0:"
    INDEX 01 06:28:28
  TRACK 294 AUDIO
    TITLE "12:cjc171_07147"
    INDEX 01 06:28:67
  TRACK 295 AUDIO
    TITLE "0:"
    INDEX 01 06:30:23
  TRACK 296 AUDIO
    TITLE "13:cjc171_07148"
    INDEX 01 06:31:22
  TRACK 297 AUDIO
    TITLE "0:"
    INDEX 01 06:33:19
  TRACK 298 AUDIO
    TITLE "14:cjc171_07149"
    INDEX 01 06:33:56
  TRACK 299 AUDIO
    TITLE "0:"
    INDEX 01 06:35:51
  TRACK 300 AUDIO
    TITLE "15:cjc171_07150"
    INDEX 01 06:36:08
  TRACK 301 AUDIO
    TITLE "0:"
    INDEX 01 06:38:03
  TRACK 302 AUDIO
    TITLE "11:cjc171_07151"
    INDEX 01 06:39:02
  TRACK 303 AUDIO
    TITLE "0:"
    INDEX 01 06:40:25
  TRACK 304 AUDIO
    TITLE "12:cjc171_07152"
    INDEX 01 06:40:64
  TRACK 305 AUDIO
    TITLE "0:"
    INDEX 01 06:43:45
  TRACK 306 AUDIO
    TITLE "13:cjc171_07153"
    INDEX 01 06:44:44
  TRACK 307 AUDIO
    TITLE "0:"
    INDEX 01 06:46:69
  TRACK 308 AUDIO
    TITLE "14:cjc171_07154"
    INDEX 01 06:47:33
  TRACK 309 AUDIO
    TITLE "0:"
    INDEX 01 06:50:00
  TRACK 310 AUDIO
    TITLE "15:cjc171_07155"
    INDEX 01 06:50:27
  TRACK 311 AUDIO
    TITLE "0:"
    INDEX 01 06:52:71
  TRACK 312 AUDIO
    TITLE "11:cjc171_07156"
    INDEX 01 06:53:67
  TRACK 313 AUDIO
    TITLE "0:"
    INDEX 01 06:55:17
  TRACK 314 AUDIO
    TITLE "12:cjc171_07157"
    INDEX 01 06:55:54
  TRACK 315 AUDIO
    TITLE "0:"
    INDEX 01 06:58:23
  TRACK 316 AUDIO
    TITLE "13:cjc171_07158"
    INDEX 01 06:59:22
  TRACK 317 AUDIO
    TITLE "0:"
    INDEX 01 07:01:43
  TRACK 318 AUDIO
    TITLE "14:cjc171_07159"
    INDEX 01 07:01:74
  TRACK 319 AUDIO
    TITLE "0:"
    INDEX 01 07:05:01
  TRACK 320 AUDIO
    TITLE "15:cjc171_07160"
    INDEX 01 07:05:23
  TRACK 321 AUDIO
    TITLE "0:"
    INDEX 01 07:08:23
  TRACK 322 AUDIO
    TITLE "11:cjc171_07161"
    INDEX 01 07:09:19
  TRACK 323 AUDIO
    TITLE "0:"
    INDEX 01 07:10:30
  TRACK 324 AUDIO
    TITLE "12:cjc171_07162"
    INDEX 01 07:10:69
  TRACK 325 AUDIO
    TITLE "0:"
    INDEX 01 07:14:06
  TRACK 326 AUDIO
    TITLE "13:cjc171_07163"
    INDEX 01 07:15:04
  TRACK 327 AUDIO
    TITLE "0:"
    INDEX 01 07:17:05
  TRACK 328 AUDIO
    TITLE "14:cjc171_07164"
    INDEX 01 07:17:44
  TRACK 329 AUDIO
    TITLE "0:"
    INDEX 01 07:19:23
  TRACK 330 AUDIO
    TITLE "15:cjc171_07165"
    INDEX 01 07:19:47
  TRACK 331 AUDIO
    TITLE "0:"
    INDEX 01 07:21:28
  TRACK 332 AUDIO
    TITLE "11:cjc171_07166"
    INDEX 01 07:22:25
  TRACK 333 AUDIO
    TITLE "0:"
    INDEX 01 07:23:33
  TRACK 334 AUDIO
    TITLE "12:cjc171_07167"
    INDEX 01 07:23:68
  TRACK 335 AUDIO
    TITLE "0:"
    INDEX 01 07:25:22
  TRACK 336 AUDIO
    TITLE "13:cjc171_07168"
    INDEX 01 07:26:19
  TRACK 337 AUDIO
    TITLE "0:"
    INDEX 01 07:28:48
  TRACK 338 AUDIO
    TITLE "14:cjc171_07169"
    INDEX 01 07:29:08
  TRACK 339 AUDIO
    TITLE "0:"
    INDEX 01 07:31:28
  TRACK 340 AUDIO
    TITLE "15:cjc171_07170"
    INDEX 01 07:31:52
  TRACK 341 AUDIO
    TITLE "0:"
    INDEX 01 07:33:70
  TRACK 342 AUDIO
    TITLE "11:cjc171_07171"
    INDEX 01 07:34:64
  TRACK 343 AUDIO
    TITLE "0:"
    INDEX 01 07:36:16
  TRACK 344 AUDIO
    TITLE "12:cjc171_07172"
    INDEX 01 07:36:51
  TRACK 345 AUDIO
    TITLE "0:"
    INDEX 01 07:38:24
  TRACK 346 AUDIO
    TITLE "13:cjc171_07173"
    INDEX 01 07:39:24
  TRACK 347 AUDIO
    TITLE "0:"
    INDEX 01 07:41:38
  TRACK 348 AUDIO
    TITLE "14:cjc171_07174"
    INDEX 01 07:41:70
  TRACK 349 AUDIO
    TITLE "0:"
    INDEX 01 07:44:09
  TRACK 350 AUDIO
    TITLE "15:cjc171_07175"
    INDEX 01 07:44:31
  TRACK 351 AUDIO
    TITLE "0:"
    INDEX 01 07:46:45
  TRACK 352 AUDIO
    TITLE "11:cjc171_07176"
    INDEX 01 07:47:45
  TRACK 353 AUDIO
    TITLE "0:"
    INDEX 01 07:49:05
  TRACK 354 AUDIO
    TITLE "12:cjc171_07177"
    INDEX 01 07:49:40
  TRACK 355 AUDIO
    TITLE "0:"
    INDEX 01 07:52:19
  TRACK 356 AUDIO
    TITLE "13:cjc171_07178"
    INDEX 01 07:53:20
  TRACK 357 AUDIO
    TITLE "0:"
    INDEX 01 07:56:18
  TRACK 358 AUDIO
    TITLE "14:cjc171_07179"
    INDEX 01 07:56:52
  TRACK 359 AUDIO
    TITLE "0:"
    INDEX 01 07:59:23
  TRACK 360 AUDIO
    TITLE "15:cjc171_07180"
    INDEX 01 07:59:42
  TRACK 361 AUDIO
    TITLE "0:"
    INDEX 01 08:02:13
  TRACK 362 AUDIO
    TITLE "11:cjc171_07181"
    INDEX 01 08:03:07
  TRACK 363 AUDIO
    TITLE "0:"
    INDEX 01 08:04:34
  TRACK 364 AUDIO
    TITLE "12:cjc171_07182"
    INDEX 01 08:04:67
  TRACK 365 AUDIO
    TITLE "0:"
    INDEX 01 08:06:56
  TRACK 366 AUDIO
    TITLE "13:cjc171_07183"
    INDEX 01 08:07:53
  TRACK 367 AUDIO
    TITLE "0:"
    INDEX 01 08:10:44
  TRACK 368 AUDIO
    TITLE "14:cjc171_07184"
    INDEX 01 08:11:04
  TRACK 369 AUDIO
    TITLE "0:"
    INDEX 01 08:13:62
  TRACK 370 AUDIO
    TITLE "15:cjc171_07185"
    INDEX 01 08:14:10
  TRACK 371 AUDIO
    TITLE "0:"
    INDEX 01 08:16:64
  TRACK 372 AUDIO
    TITLE "11:cjc171_07186"
    INDEX 01 08:17:60
  TRACK 373 AUDIO
    TITLE "0:"
    INDEX 01 08:19:10
  TRACK 374 AUDIO
    TITLE "12:cjc171_07187"
    INDEX 01 08:19:47
  TRACK 375 AUDIO
    TITLE "0:"
    INDEX 01 08:22:28
  TRACK 376 AUDIO
    TITLE "13:cjc171_07188"
    INDEX 01 08:23:25
  TRACK 377 AUDIO
    TITLE "0:"
    INDEX 01 08:25:51
  TRACK 378 AUDIO
    TITLE "14:cjc171_07189"
    INDEX 01 08:26:10
  TRACK 379 AUDIO
    TITLE "0:"
    INDEX 01 08:28:14
  TRACK 380 AUDIO
    TITLE "15:cjc171_07190"
    INDEX 01 08:28:36
  TRACK 381 AUDIO
    TITLE "0:"
    INDEX 01 08:30:39
  TRACK 382 AUDIO
    TITLE "11:cjc171_07191"
    INDEX 01 08:31:34
  TRACK 383 AUDIO
    TITLE "0:"
    INDEX 01 08:32:46
  TRACK 384 AUDIO
    TITLE "12:cjc171_07192"
    INDEX 01 08:33:02
  TRACK 385 AUDIO
    TITLE "0:"
    INDEX 01 08:34:48
  TRACK 386 AUDIO
    TITLE "13:cjc171_07193"
    INDEX 01 08:35:48
  TRACK 387 AUDIO
    TITLE "0:"
    INDEX 01 08:37:55
  TRACK 388 AUDIO
    TITLE "14:cjc171_07194"
    INDEX 01 08:38:15
  TRACK 389 AUDIO
    TITLE "0:"
    INDEX 01 08:40:14
  TRACK 390 AUDIO
    TITLE "15:cjc171_07195"
    INDEX 01 08:40:35
  TRACK 391 AUDIO
    TITLE "0:"
    INDEX 01 08:42:34
  TRACK 392 AUDIO
    TITLE "11:cjc171_07196"
    INDEX 01 08:43:30
  TRACK 393 AUDIO
    TITLE "0:"
    INDEX 01 08:44:43
  TRACK 394 AUDIO
    TITLE "12:cjc171_07197"
    INDEX 01 08:45:05
  TRACK 395 AUDIO
    TITLE "0:"
    INDEX 01 08:46:14
  TRACK 396 AUDIO
    TITLE "13:cjc171_07198"
    INDEX 01 08:47:12
  TRACK 397 AUDIO
    TITLE "0:"
    INDEX 01 08:49:09
  TRACK 398 AUDIO
    TITLE "14:cjc171_07199"
    INDEX 01 08:49:42
  TRACK 399 AUDIO
    TITLE "0:"
    INDEX 01 08:51:59
  TRACK 400 AUDIO
    TITLE "15:cjc171_07200"
    INDEX 01 08:52:05
  TRACK 401 AUDIO
    TITLE "0:"
    INDEX 01 08:54:22
  TRACK 402 AUDIO
    TITLE "11:cjc171_07201"
    INDEX 01 08:55:21
  TRACK 403 AUDIO
    TITLE "0:"
    INDEX 01 08:56:42
  TRACK 404 AUDIO
    TITLE "12:cjc171_07202"
    INDEX 01 08:57:06
  TRACK 405 AUDIO
    TITLE "0:"
    INDEX 01 08:59:54
  TRACK 406 AUDIO
    TITLE "13:cjc171_07203"
    INDEX 01 09:00:52
  TRACK 407 AUDIO
    TITLE "0:"
    INDEX 01 09:02:64
  TRACK 408 AUDIO
    TITLE "14:cjc171_07204"
    INDEX 01 09:03:28
  TRACK 409 AUDIO
    TITLE "0:"
    INDEX 01 09:05:45
  TRACK 410 AUDIO
    TITLE "15:cjc171_07205"
    INDEX 01 09:05:74
  TRACK 411 AUDIO
    TITLE "0:"
    INDEX 01 09:08:18
  TRACK 412 AUDIO
    TITLE "11:cjc171_07206"
    INDEX 01 09:09:21
  TRACK 413 AUDIO
    TITLE "0:"
    INDEX 01 09:10:52
  TRACK 414 AUDIO
    TITLE "12:cjc171_07207"
    INDEX 01 09:11:14
  TRACK 415 AUDIO
    TITLE "0:"
    INDEX 01 09:12:49
  TRACK 416 AUDIO
    TITLE "13:cjc171_07208"
    INDEX 01 09:13:54
  TRACK 417 AUDIO
    TITLE "0:"
    INDEX 01 09:16:60
  TRACK 418 AUDIO
    TITLE "14:cjc171_07209"
    INDEX 01 09:17:25
  TRACK 419 AUDIO
    TITLE "0:"
    INDEX 01 09:21:21
  TRACK 420 AUDIO
    TITLE "15:cjc171_07210"
    INDEX 01 09:21:48
  TRACK 421 AUDIO
    TITLE "0:"
    INDEX 01 09:25:42
  TRACK 422 AUDIO
    TITLE "11:cjc171_07211"
    INDEX 01 09:26:45
  TRACK 423 AUDIO
    TITLE "0:"
    INDEX 01 09:27:60
  TRACK 424 AUDIO
    TITLE "12:cjc171_07212"
    INDEX 01 09:28:25
  TRACK 425 AUDIO
    TITLE "0:"
    INDEX 01 09:31:09
  TRACK 426 AUDIO
    TITLE "13:cjc171_07213"
    INDEX 01 09:32:07
  TRACK 427 AUDIO
    TITLE "0:"
    INDEX 01 09:33:69
  TRACK 428 AUDIO
    TITLE "14:cjc171_07214"
    INDEX 01 09:34:35
  TRACK 429 AUDIO
    TITLE "0:"
    INDEX 01 09:36:22
  TRACK 430 AUDIO
    TITLE "15:cjc171_07215"
    INDEX 01 09:36:51
  TRACK 431 AUDIO
    TITLE "0:"
    INDEX 01 09:38:39
  TRACK 432 AUDIO
    TITLE "11:cjc171_07216"
    INDEX 01 09:39:46
  TRACK 433 AUDIO
    TITLE "0:"
    INDEX 01 09:40:55
  TRACK 434 AUDIO
    TITLE "12:cjc171_07217"
    INDEX 01 09:41:19
  TRACK 435 AUDIO
    TITLE "0:"
    INDEX 01 09:43:61
  TRACK 436 AUDIO
    TITLE "13:cjc171_07218"
    INDEX 01 09:44:63
  TRACK 437 AUDIO
    TITLE "0:"
    INDEX 01 09:46:22
  TRACK 438 AUDIO
    TITLE "14:cjc171_07219"
    INDEX 01 09:46:64
  TRACK 439 AUDIO
    TITLE "0:"
    INDEX 01 09:48:57
  TRACK 440 AUDIO
    TITLE "15:cjc171_07220"
    INDEX 01 09:49:13
  TRACK 441 AUDIO
    TITLE "0:"
    INDEX 01 09:51:08
  TRACK 442 AUDIO
    TITLE "11:cjc171_07221"
    INDEX 01 09:52:13
  TRACK 443 AUDIO
    TITLE "0:"
    INDEX 01 09:53:24
  TRACK 444 AUDIO
    TITLE "12:cjc171_07222"
    INDEX 01 09:53:66
  TRACK 445 AUDIO
    TITLE "0:"
    INDEX 01 09:56:07
  TRACK 446 AUDIO
    TITLE "13:cjc171_07223"
    INDEX 01 09:57:05
  TRACK 447 AUDIO
    TITLE "0:"
    INDEX 01 10:00:42
  TRACK 448 AUDIO
    TITLE "14:cjc171_07224"
    INDEX 01 10:01:06
  TRACK 449 AUDIO
    TITLE "0:"
    INDEX 01 10:04:38
  TRACK 450 AUDIO
    TITLE "15:cjc171_07225"
    INDEX 01 10:04:67
  TRACK 451 AUDIO
    TITLE "0:"
    INDEX 01 10:08:24
  TRACK 452 AUDIO
    TITLE "11:cjc171_07226"
    INDEX 01 10:09:27
  TRACK 453 AUDIO
    TITLE "0:"
    INDEX 01 10:10:35
  TRACK 454 AUDIO
    TITLE "12:cjc171_07227"
    INDEX 01 10:10:72
  TRACK 455 AUDIO
    TITLE "0:"
    INDEX 01 10:13:31
  TRACK 456 AUDIO
    TITLE "13:cjc171_07228"
    INDEX 01 10:14:30
  TRACK 457 AUDIO
    TITLE "0:"
    INDEX 01 10:15:59
  TRACK 458 AUDIO
    TITLE "14:cjc171_07229"
    INDEX 01 10:16:22
  TRACK 459 AUDIO
    TITLE "0:"
    INDEX 01 10:18:22
  TRACK 460 AUDIO
    TITLE "15:cjc171_07230"
    INDEX 01 10:18:52
  TRACK 461 AUDIO
    TITLE "0:"
    INDEX 01 10:20:55
  TRACK 462 AUDIO
    TITLE "11:cjc171_07231"
    INDEX 01 10:21:58
  TRACK 463 AUDIO
    TITLE "0:"
    INDEX 01 10:22:69
  TRACK 464 AUDIO
    TITLE "12:cjc171_07232"
    INDEX 01 10:23:39
  TRACK 465 AUDIO
    TITLE "0:"
    INDEX 01 10:26:30
  TRACK 466 AUDIO
    TITLE "13:cjc171_07233"
    INDEX 01 10:27:29
  TRACK 467 AUDIO
    TITLE "0:"
    INDEX 01 10:29:32
  TRACK 468 AUDIO
    TITLE "14:cjc171_07234"
    INDEX 01 10:29:71
  TRACK 469 AUDIO
    TITLE "0:"
    INDEX 01 10:31:56
  TRACK 470 AUDIO
    TITLE "15:cjc171_07235"
    INDEX 01 10:32:05
  TRACK 471 AUDIO
    TITLE "0:"
    INDEX 01 10:33:63
  TRACK 472 AUDIO
    TITLE "11:cjc171_07236"
    INDEX 01 10:34:63
  TRACK 473 AUDIO
    TITLE "0:"
    INDEX 01 10:36:22
  TRACK 474 AUDIO
    TITLE "12:cjc171_07237"
    INDEX 01 10:36:65
  TRACK 475 AUDIO
    TITLE "0:"
    INDEX 01 10:38:29
  TRACK 476 AUDIO
    TITLE "13:cjc171_07238"
    INDEX 01 10:39:28
  TRACK 477 AUDIO
    TITLE "0:"
    INDEX 01 10:40:36
  TRACK 478 AUDIO
    TITLE "14:cjc171_07239"
    INDEX 01 10:40:71
  TRACK 479 AUDIO
    TITLE "0:"
    INDEX 01 10:43:13
  TRACK 480 AUDIO
    TITLE "15:cjc171_07240"
    INDEX 01 10:43:42
  TRACK 481 AUDIO
    TITLE "0:"
    INDEX 01 10:45:58
  TRACK 482 AUDIO
    TITLE "11:cjc171_07241"
    INDEX 01 10:46:62
  TRACK 483 AUDIO
    TITLE "0:"
    INDEX 01 10:48:10
  TRACK 484 AUDIO
    TITLE "12:cjc171_07242"
    INDEX 01 10:48:49
  TRACK 485 AUDIO
    TITLE "0:"
    INDEX 01 10:50:58
  TRACK 486 AUDIO
    TITLE "13:cjc171_07243"
    INDEX 01 10:51:57
  TRACK 487 AUDIO
    TITLE "0:"
    INDEX 01 10:54:10
  TRACK 488 AUDIO
    TITLE "14:cjc171_07244"
    INDEX 01 10:54:50
  TRACK 489 AUDIO
    TITLE "0:"
    INDEX 01 10:57:15
  TRACK 490 AUDIO
    TITLE "15:cjc171_07245"
    INDEX 01 10:57:40
  TRACK 491 AUDIO
    TITLE "0:"
    INDEX 01 11:00:05
  TRACK 492 AUDIO
    TITLE "11:cjc171_07246"
    INDEX 01 11:01:05
  TRACK 493 AUDIO
    TITLE "0:"
    INDEX 01 11:02:18
  TRACK 494 AUDIO
    TITLE "12:cjc171_07247"
    INDEX 01 11:02:55
  TRACK 495 AUDIO
    TITLE "0:"
    INDEX 01 11:04:42
  TRACK 496 AUDIO
    TITLE "13:cjc171_07248"
    INDEX 01 11:05:42
  TRACK 497 AUDIO
    TITLE "0:"
    INDEX 01 11:07:33
  TRACK 498 AUDIO
    TITLE "14:cjc171_07249"
    INDEX 01 11:07:72
  TRACK 499 AUDIO
    TITLE "0:"
    INDEX 01 11:09:41
  TRACK 500 AUDIO
    TITLE "15:cjc171_07250"
    INDEX 01 11:09:69
  TRACK 501 AUDIO
    TITLE "0:"
    INDEX 01 11:11:38
  TRACK 502 AUDIO
    TITLE "11:cjc171_07251"
    INDEX 01 11:12:42
  TRACK 503 AUDIO
    TITLE "0:"
    INDEX 01 11:13:61
  TRACK 504 AUDIO
    TITLE "12:cjc171_07252"
    INDEX 01 11:14:19
  TRACK 505 AUDIO
    TITLE "0:"
    INDEX 01 11:18:01
  TRACK 506 AUDIO
    TITLE "13:cjc171_07253"
    INDEX 01 11:19:06
  TRACK 507 AUDIO
    TITLE "0:"
    INDEX 01 11:20:63
  TRACK 508 AUDIO
    TITLE "14:cjc171_07254"
    INDEX 01 11:21:23
  TRACK 509 AUDIO
    TITLE "0:"
    INDEX 01 11:23:51
  TRACK 510 AUDIO
    TITLE "15:cjc171_07255"
    INDEX 01 11:23:71
  TRACK 511 AUDIO
    TITLE "0:"
    INDEX 01 11:26:26
  TRACK 512 AUDIO
    TITLE "11:cjc171_07256"
    INDEX 01 11:27:24
  TRACK 513 AUDIO
    TITLE "0:"
    INDEX 01 11:28:41
  TRACK 514 AUDIO
    TITLE "12:cjc171_07257"
    INDEX 01 11:29:05
  TRACK 515 AUDIO
    TITLE "0:"
    INDEX 01 11:31:39
  TRACK 516 AUDIO
    TITLE "13:cjc171_07258"
    INDEX 01 11:32:37
  TRACK 517 AUDIO
    TITLE "0:"
    INDEX 01 11:34:02
  TRACK 518 AUDIO
    TITLE "14:cjc171_07259"
    INDEX 01 11:34:37
  TRACK 519 AUDIO
    TITLE "0:"
    INDEX 01 11:36:46
  TRACK 520 AUDIO
    TITLE "15:cjc171_07260"
    INDEX 01 11:36:70
  TRACK 521 AUDIO
    TITLE "0:"
    INDEX 01 11:39:03
  TRACK 522 AUDIO
    TITLE "11:cjc171_07261"
    INDEX 01 11:40:03
  TRACK 523 AUDIO
    TITLE "0:"
    INDEX 01 11:41:34
  TRACK 524 AUDIO
    TITLE "12:cjc171_07262"
    INDEX 01 11:41:69
  TRACK 525 AUDIO
    TITLE "0:"
    INDEX 01 11:45:14
  TRACK 526 AUDIO
    TITLE "13:cjc171_07263"
    INDEX 01 11:46:15
  TRACK 527 AUDIO
    TITLE "0:"
    INDEX 01 11:48:22
  TRACK 528 AUDIO
    TITLE "14:cjc171_07264"
    INDEX 01 11:48:57
  TRACK 529 AUDIO
    TITLE "0:"
    INDEX 01 11:50:52
  TRACK 530 AUDIO
    TITLE "15:cjc171_07265"
    INDEX 01 11:51:01
  TRACK 531 AUDIO
    TITLE "0:"
    INDEX 01 11:52:67
  TRACK 532 AUDIO
    TITLE "11:cjc171_07266"
    INDEX 01 11:53:62
  TRACK 533 AUDIO
    TITLE "0:"
    INDEX 01 11:55:00
  TRACK 534 AUDIO
    TITLE "12:cjc171_07267"
    INDEX 01 11:55:45
  TRACK 535 AUDIO
    TITLE "0:"
    INDEX 01 11:58:18
  TRACK 536 AUDIO
    TITLE "13:cjc171_07268"
    INDEX 01 11:59:18
  TRACK 537 AUDIO
    TITLE "0:"
    INDEX 01 12:01:21
  TRACK 538 AUDIO
    TITLE "14:cjc171_07269"
    INDEX 01 12:01:58
  TRACK 539 AUDIO
    TITLE "0:"
    INDEX 01 12:04:05
  TRACK 540 AUDIO
    TITLE "15:cjc171_07270"
    INDEX 01 12:04:29
  TRACK 541 AUDIO
    TITLE "0:"
    INDEX 01 12:06:53
  TRACK 542 AUDIO
    TITLE "11:cjc171_07271"
    INDEX 01 12:07:47
  TRACK 543 AUDIO
    TITLE "0:"
    INDEX 01 12:08:66
  TRACK 544 AUDIO
    TITLE "12:cjc171_07272"
    INDEX 01 12:09:28
  TRACK 545 AUDIO
    TITLE "0:"
    INDEX 01 12:10:61
  TRACK 546 AUDIO
    TITLE "13:cjc171_07273"
    INDEX 01 12:11:60
  TRACK 547 AUDIO
    TITLE "0:"
    INDEX 01 12:13:49
  TRACK 548 AUDIO
    TITLE "14:cjc171_07274"
    INDEX 01 12:14:07
  TRACK 549 AUDIO
    TITLE "0:"
    INDEX 01 12:16:01
  TRACK 550 AUDIO
    TITLE "15:cjc171_07275"
    INDEX 01 12:16:24
  TRACK 551 AUDIO
    TITLE "0:"
    INDEX 01 12:18:15
  TRACK 552 AUDIO
    TITLE "11:cjc171_07276"
    INDEX 01 12:19:16
  TRACK 553 AUDIO
    TITLE "0:"
    INDEX 01 12:20:28
  TRACK 554 AUDIO
    TITLE "12:cjc171_07277"
    INDEX 01 12:20:59
  TRACK 555 AUDIO
    TITLE "0:"
    INDEX 01 12:23:50
  TRACK 556 AUDIO
    TITLE "13:cjc171_07278"
    INDEX 01 12:24:51
  TRACK 557 AUDIO
    TITLE "0:"
    INDEX 01 12:27:22
  TRACK 558 AUDIO
    TITLE "14:cjc171_07279"
    INDEX 01 12:27:61
  TRACK 559 AUDIO
    TITLE "0:"
    INDEX 01 12:30:12
  TRACK 560 AUDIO
    TITLE "15:cjc171_07280"
    INDEX 01 12:30:42
  TRACK 561 AUDIO
    TITLE "0:"
    INDEX 01 12:32:70
  TRACK 562 AUDIO
    TITLE "11:cjc171_07281"
    INDEX 01 12:33:69
  TRACK 563 AUDIO
    TITLE "0:"
    INDEX 01 12:34:67
  TRACK 564 AUDIO
    TITLE "12:cjc171_07282"
    INDEX 01 12:35:25
  TRACK 565 AUDIO
    TITLE "0:"
    INDEX 01 12:36:54
  TRACK 566 AUDIO
    TITLE "13:cjc171_07283"
    INDEX 01 12:37:54
  TRACK 567 AUDIO
    TITLE "0:"
    INDEX 01 12:40:01
  TRACK 568 AUDIO
    TITLE "14:cjc171_07284"
    INDEX 01 12:40:34
  TRACK 569 AUDIO
    TITLE "0:"
    INDEX 01 12:42:49
  TRACK 570 AUDIO
    TITLE "15:cjc171_07285"
    INDEX 01 12:42:68
  TRACK 571 AUDIO
    TITLE "0:"
    INDEX 01 12:45:06
  TRACK 572 AUDIO
    TITLE "11:cjc171_07286"
    INDEX 01 12:46:00
  TRACK 573 AUDIO
    TITLE "0:"
    INDEX 01 12:47:09
  TRACK 574 AUDIO
    TITLE "12:cjc171_07287"
    INDEX 01 12:47:44
  TRACK 575 AUDIO
    TITLE "0:"
    INDEX 01 12:49:18
  TRACK 576 AUDIO
    TITLE "13:cjc171_07288"
    INDEX 01 12:50:17
  TRACK 577 AUDIO
    TITLE "0:"
    INDEX 01 12:52:49
  TRACK 578 AUDIO
    TITLE "14:cjc171_07289"
    INDEX 01 12:53:10
  TRACK 579 AUDIO
    TITLE "0:"
    INDEX 01 12:55:03
  TRACK 580 AUDIO
    TITLE "15:cjc171_07290"
    INDEX 01 12:55:28
  TRACK 581 AUDIO
    TITLE "0:"
    INDEX 01 12:57:21
  TRACK 582 AUDIO
    TITLE "11:cjc171_07291"
    INDEX 01 12:58:17
  TRACK 583 AUDIO
    TITLE "0:"
    INDEX 01 12:59:45
  TRACK 584 AUDIO
    TITLE "12:cjc171_07292"
    INDEX 01 13:00:08
  TRACK 585 AUDIO
    TITLE "0:"
    INDEX 01 13:01:52
  TRACK 586 AUDIO
    TITLE "13:cjc171_07293"
    INDEX 01 13:02:52
  TRACK 587 AUDIO
    TITLE "0:"
    INDEX 01 13:05:07
  TRACK 588 AUDIO
    TITLE "14:cjc171_07294"
    INDEX 01 13:05:42
  TRACK 589 AUDIO
    TITLE "0:"
    INDEX 01 13:08:03
  TRACK 590 AUDIO
    TITLE "15:cjc171_07295"
    INDEX 01 13:08:27
  TRACK 591 AUDIO
    TITLE "0:"
    INDEX 01 13:10:65
  TRACK 592 AUDIO
    TITLE "11:cjc171_07296"
    INDEX 01 13:11:62
  TRACK 593 AUDIO
    TITLE "0:"
    INDEX 01 13:13:02
  TRACK 594 AUDIO
    TITLE "12:cjc171_07297"
    INDEX 01 13:13:36
  TRACK 595 AUDIO
    TITLE "0:"
    INDEX 01 13:14:53
  TRACK 596 AUDIO
    TITLE "13:cjc171_07298"
    INDEX 01 13:15:50
  TRACK 597 AUDIO
    TITLE "0:"
    INDEX 01 13:17:35
  TRACK 598 AUDIO
    TITLE "14:cjc171_07299"
    INDEX 01 13:17:71
  TRACK 599 AUDIO
    TITLE "0:"
    INDEX 01 13:20:20
  TRACK 600 AUDIO
    TITLE "15:cjc171_07300"
    INDEX 01 13:20:40
  TRACK 601 AUDIO
    TITLE "0:"
    INDEX 01 13:22:64
  TRACK 602 AUDIO
    TITLE "11:cjc171_07301"
    INDEX 01 13:23:64
  TRACK 603 AUDIO
    TITLE "0:"
    INDEX 01 13:25:11
  TRACK 604 AUDIO
    TITLE "12:cjc171_07302"
    INDEX 01 13:25:45
  TRACK 605 AUDIO
    TITLE "0:"
    INDEX 01 13:28:04
  TRACK 606 AUDIO
    TITLE "13:cjc171_07303"
    INDEX 01 13:29:01
  TRACK 607 AUDIO
    TITLE "0:"
    INDEX 01 13:31:12
  TRACK 608 AUDIO
    TITLE "14:cjc171_07304"
    INDEX 01 13:31:51
  TRACK 609 AUDIO
    TITLE "0:"
    INDEX 01 13:34:20
  TRACK 610 AUDIO
    TITLE "15:cjc171_07305"
    INDEX 01 13:34:50
  TRACK 611 AUDIO
    TITLE "0:"
    INDEX 01 13:37:17
  TRACK 612 AUDIO
    TITLE "11:cjc171_07306"
    INDEX 01 13:38:22
  TRACK 613 AUDIO
    TITLE "0:"
    INDEX 01 13:39:45
  TRACK 614 AUDIO
    TITLE "12:cjc171_07307"
    INDEX 01 13:40:09
  TRACK 615 AUDIO
    TITLE "0:"
    INDEX 01 13:42:41
  TRACK 616 AUDIO
    TITLE "13:cjc171_07308"
    INDEX 01 13:43:37
  TRACK 617 AUDIO
    TITLE "0:"
    INDEX 01 13:45:61
  TRACK 618 AUDIO
    TITLE "14:cjc171_07309"
    INDEX 01 13:46:27
  TRACK 619 AUDIO
    TITLE "0:"
    INDEX 01 13:48:67
  TRACK 620 AUDIO
    TITLE "15:cjc171_07310"
    INDEX 01 13:49:22
  TRACK 621 AUDIO
    TITLE "0:"
    INDEX 01 13:51:62
  TRACK 622 AUDIO
    TITLE "11:cjc171_07311"
    INDEX 01 13:52:67
  TRACK 623 AUDIO
    TITLE "0:"
    INDEX 01 13:54:05
  TRACK 624 AUDIO
    TITLE "12:cjc171_07312"
    INDEX 01 13:54:44
  TRACK 625 AUDIO
    TITLE "0:"
    INDEX 01 13:57:21
  TRACK 626 AUDIO
    TITLE "13:cjc171_07313"
    INDEX 01 13:58:19
  TRACK 627 AUDIO
    TITLE "0:"
    INDEX 01 14:00:41
  TRACK 628 AUDIO
    TITLE "14:cjc171_07314"
    INDEX 01 14:01:03
  TRACK 629 AUDIO
    TITLE "0:"
    INDEX 01 14:03:59
  TRACK 630 AUDIO
    TITLE "15:cjc171_07315"
    INDEX 01 14:04:13
  TRACK 631 AUDIO
    TITLE "0:"
    INDEX 01 14:06:69
  TRACK 632 AUDIO
    TITLE "11:cjc171_07316"
    INDEX 01 14:08:00
  TRACK 633 AUDIO
    TITLE "0:"
    INDEX 01 14:09:09
  TRACK 634 AUDIO
    TITLE "12:cjc171_07317"
    INDEX 01 14:09:50
  TRACK 635 AUDIO
    TITLE "0:"
    INDEX 01 14:10:61
  TRACK 636 AUDIO
    TITLE "13:cjc171_07318"
    INDEX 01 14:11:53
  TRACK 637 AUDIO
    TITLE "0:"
    INDEX 01 14:14:00
  TRACK 638 AUDIO
    TITLE "14:cjc171_07319"
    INDEX 01 14:14:39
  TRACK 639 AUDIO
    TITLE "0:"
    INDEX 01 14:16:44
  TRACK 640 AUDIO
    TITLE "15:cjc171_07320"
    INDEX 01 14:17:00
  TRACK 641 AUDIO
    TITLE "0:"
    INDEX 01 14:19:03
  TRACK 642 AUDIO
    TITLE "11:cjc171_07321"
    INDEX 01 14:20:09
  TRACK 643 AUDIO
    TITLE "0:"
    INDEX 01 14:21:41
  TRACK 644 AUDIO
    TITLE "12:cjc171_07322"
    INDEX 01 14:22:07
  TRACK 645 AUDIO
    TITLE "0:"
    INDEX 01 14:23:36
  TRACK 646 AUDIO
    TITLE "13:cjc171_07323"
    INDEX 01 14:24:38
  TRACK 647 AUDIO
    TITLE "0:"
    INDEX 01 14:26:27
  TRACK 648 AUDIO
    TITLE "14:cjc171_07324"
    INDEX 01 14:26:64
  TRACK 649 AUDIO
    TITLE "0:"
    INDEX 01 14:28:71
  TRACK 650 AUDIO
    TITLE "15:cjc171_07325"
    INDEX 01 14:29:25
  TRACK 651 AUDIO
    TITLE "0:"
    INDEX 01 14:31:30
  TRACK 652 AUDIO
    TITLE "11:cjc171_07326"
    INDEX 01 14:32:33
  TRACK 653 AUDIO
    TITLE "0:"
    INDEX 01 14:33:72
  TRACK 654 AUDIO
    TITLE "12:cjc171_07327"
    INDEX 01 14:34:36
  TRACK 655 AUDIO
    TITLE "0:"
    INDEX 01 14:37:33
  TRACK 656 AUDIO
    TITLE "13:cjc171_07328"
    INDEX 01 14:38:32
  TRACK 657 AUDIO
    TITLE "0:"
    INDEX 01 14:40:54
  TRACK 658 AUDIO
    TITLE "14:cjc171_07329"
    INDEX 01 14:41:21
  TRACK 659 AUDIO
    TITLE "0:"
    INDEX 01 14:43:43
  TRACK 660 AUDIO
    TITLE "15:cjc171_07330"
    INDEX 01 14:43:72
  TRACK 661 AUDIO
    TITLE "0:"
    INDEX 01 14:46:22
  TRACK 662 AUDIO
    TITLE "11:cjc171_07331"
    INDEX 01 14:47:25
  TRACK 663 AUDIO
    TITLE "0:"
    INDEX 01 14:48:40
  TRACK 664 AUDIO
    TITLE "12:cjc171_07332"
    INDEX 01 14:49:04
  TRACK 665 AUDIO
    TITLE "0:"
    INDEX 01 14:51:37
  TRACK 666 AUDIO
    TITLE "13:cjc171_07333"
    INDEX 01 14:52:36
  TRACK 667 AUDIO
    TITLE "0:"
    INDEX 01 14:53:69
  TRACK 668 AUDIO
    TITLE "14:cjc171_07334"
    INDEX 01 14:54:33
  TRACK 669 AUDIO
    TITLE "0:"
    INDEX 01 14:56:36
  TRACK 670 AUDIO
    TITLE "15:cjc171_07335"
    INDEX 01 14:56:67
  TRACK 671 AUDIO
    TITLE "0:"
    INDEX 01 14:58:72
  TRACK 672 AUDIO
    TITLE "11:cjc171_07336"
    INDEX 01 15:00:02
  TRACK 673 AUDIO
    TITLE "0:"
    INDEX 01 15:01:19
  TRACK 674 AUDIO
    TITLE "12:cjc171_07337"
    INDEX 01 15:01:58
  TRACK 675 AUDIO
    TITLE "0:"
    INDEX 01 15:04:31
  TRACK 676 AUDIO
    TITLE "13:cjc171_07338"
    INDEX 01 15:05:29
  TRACK 677 AUDIO
    TITLE "0:"
    INDEX 01 15:07:63
  TRACK 678 AUDIO
    TITLE "14:cjc171_07339"
    INDEX 01 15:08:27
  TRACK 679 AUDIO
    TITLE "0:"
    INDEX 01 15:10:34
  TRACK 680 AUDIO
    TITLE "15:cjc171_07340"
    INDEX 01 15:10:65
  TRACK 681 AUDIO
    TITLE "0:"
    INDEX 01 15:12:72
  TRACK 682 AUDIO
    TITLE "11:cjc171_07341"
    INDEX 01 15:14:02
  TRACK 683 AUDIO
    TITLE "0:"
    INDEX 01 15:15:08
  TRACK 684 AUDIO
    TITLE "12:cjc171_07342"
    INDEX 01 15:15:49
  TRACK 685 AUDIO
    TITLE "0:"
    INDEX 01 15:18:02
  TRACK 686 AUDIO
    TITLE "13:cjc171_07343"
    INDEX 01 15:19:02
  TRACK 687 AUDIO
    TITLE "0:"
    INDEX 01 15:20:72
  TRACK 688 AUDIO
    TITLE "14:cjc171_07344"
    INDEX 01 15:21:34
  TRACK 689 AUDIO
    TITLE "0:"
    INDEX 01 15:23:31
  TRACK 690 AUDIO
    TITLE "15:cjc171_07345"
    INDEX 01 15:23:60
  TRACK 691 AUDIO
    TITLE "0:"
    INDEX 01 15:25:55
  TRACK 692 AUDIO
    TITLE "11:cjc171_07346"
    INDEX 01 15:26:60
  TRACK 693 AUDIO
    TITLE "0:"
    INDEX 01 15:27:66
  TRACK 694 AUDIO
    TITLE "12:cjc171_07347"
    INDEX 01 15:28:32
  TRACK 695 AUDIO
    TITLE "0:"
    INDEX 01 15:30:74
  TRACK 696 AUDIO
    TITLE "13:cjc171_07348"
    INDEX 01 15:32:00
  TRACK 697 AUDIO
    TITLE "0:"
    INDEX 01 15:33:51
  TRACK 698 AUDIO
    TITLE "14:cjc171_07349"
    INDEX 01 15:34:15
  TRACK 699 AUDIO
    TITLE "0:"
    INDEX 01 15:35:73
  TRACK 700 AUDIO
    TITLE "15:cjc171_07350"
    INDEX 01 15:36:27
  TRACK 701 AUDIO
    TITLE "0:"
    INDEX 01 15:38:09
  TRACK 702 AUDIO
    TITLE "11:cjc171_07351"
    INDEX 01 15:39:10
  TRACK 703 AUDIO
    TITLE "0:"
    INDEX 01 15:40:49
  TRACK 704 AUDIO
    TITLE "12:cjc171_07352"
    INDEX 01 15:41:15
  TRACK 705 AUDIO
    TITLE "0:"
    INDEX 01 15:44:43
  TRACK 706 AUDIO
    TITLE "13:cjc171_07353"
    INDEX 01 15:45:42
  TRACK 707 AUDIO
    TITLE "0:"
    INDEX 01 15:48:13
  TRACK 708 AUDIO
    TITLE "14:cjc171_07354"
    INDEX 01 15:48:46
  TRACK 709 AUDIO
    TITLE "0:"
    INDEX 01 15:50:63
  TRACK 710 AUDIO
    TITLE "15:cjc171_07355"
    INDEX 01 15:51:09
  TRACK 711 AUDIO
    TITLE "0:"
    INDEX 01 15:53:22
  TRACK 712 AUDIO
    TITLE "11:cjc171_07356"
    INDEX 01 15:54:18
  TRACK 713 AUDIO
    TITLE "0:"
    INDEX 01 15:55:44
  TRACK 714 AUDIO
    TITLE "12:cjc171_07357"
    INDEX 01 15:56:03
  TRACK 715 AUDIO
    TITLE "0:"
    INDEX 01 15:58:21
  TRACK 716 AUDIO
    TITLE "13:cjc171_07358"
    INDEX 01 15:59:19
  TRACK 717 AUDIO
    TITLE "0:"
    INDEX 01 16:01:31
  TRACK 718 AUDIO
    TITLE "14:cjc171_07359"
    INDEX 01 16:01:65
  TRACK 719 AUDIO
    TITLE "0:"
    INDEX 01 16:03:69
  TRACK 720 AUDIO
    TITLE "15:cjc171_07360"
    INDEX 01 16:04:14
  TRACK 721 AUDIO
    TITLE "0:"
    INDEX 01 16:06:19
  TRACK 722 AUDIO
    TITLE "11:cjc171_07361"
    INDEX 01 16:07:16
  TRACK 723 AUDIO
    TITLE "0:"
    INDEX 01 16:08:12
  TRACK 724 AUDIO
    TITLE "12:cjc171_07362"
    INDEX 01 16:08:47
  TRACK 725 AUDIO
    TITLE "0:"
    INDEX 01 16:11:51
  TRACK 726 AUDIO
    TITLE "13:cjc171_07363"
    INDEX 01 16:12:49
  TRACK 727 AUDIO
    TITLE "0:"
    INDEX 01 16:14:32
  TRACK 728 AUDIO
    TITLE "14:cjc171_07364"
    INDEX 01 16:14:67
  TRACK 729 AUDIO
    TITLE "0:"
    INDEX 01 16:16:58
  TRACK 730 AUDIO
    TITLE "15:cjc171_07365"
    INDEX 01 16:17:07
  TRACK 731 AUDIO
    TITLE "0:"
    INDEX 01 16:18:71
  TRACK 732 AUDIO
    TITLE "11:cjc171_07366"
    INDEX 01 16:19:66
  TRACK 733 AUDIO
    TITLE "0:"
    INDEX 01 16:21:14
  TRACK 734 AUDIO
    TITLE "12:cjc171_07367"
    INDEX 01 16:21:50
  TRACK 735 AUDIO
    TITLE "0:"
    INDEX 01 16:23:56
  TRACK 736 AUDIO
    TITLE "13:cjc171_07368"
    INDEX 01 16:24:54
  TRACK 737 AUDIO
    TITLE "0:"
    INDEX 01 16:27:15
  TRACK 738 AUDIO
    TITLE "14:cjc171_07369"
    INDEX 01 16:27:48
  TRACK 739 AUDIO
    TITLE "0:"
    INDEX 01 16:30:15
  TRACK 740 AUDIO
    TITLE "15:cjc171_07370"
    INDEX 01 16:30:37
  TRACK 741 AUDIO
    TITLE "0:"
    INDEX 01 16:33:06
  TRACK 742 AUDIO
    TITLE "11:cjc171_07371"
    INDEX 01 16:34:01
  TRACK 743 AUDIO
    TITLE "0:"
    INDEX 01 16:34:74
  TRACK 744 AUDIO
    TITLE "12:cjc171_07372"
    INDEX 01 16:35:34
  TRACK 745 AUDIO
    TITLE "0:"
    INDEX 01 16:37:37
  TRACK 746 AUDIO
    TITLE "13:cjc171_07373"
    INDEX 01 16:38:36
  TRACK 747 AUDIO
    TITLE "0:"
    INDEX 01 16:41:03
  TRACK 748 AUDIO
    TITLE "14:cjc171_07374"
    INDEX 01 16:41:43
  TRACK 749 AUDIO
    TITLE "0:"
    INDEX 01 16:44:10
  TRACK 750 AUDIO
    TITLE "15:cjc171_07375"
    INDEX 01 16:44:37
  TRACK 751 AUDIO
    TITLE "0:"
    INDEX 01 16:47:06
  TRACK 752 AUDIO
    TITLE "11:cjc171_07376"
    INDEX 01 16:48:03
  TRACK 753 AUDIO
    TITLE "0:"
    INDEX 01 16:49:28
  TRACK 754 AUDIO
    TITLE "12:cjc171_07377"
    INDEX 01 16:49:64
  TRACK 755 AUDIO
    TITLE "0:"
    INDEX 01 16:52:66
  TRACK 756 AUDIO
    TITLE "13:cjc171_07378"
    INDEX 01 16:53:67
  TRACK 757 AUDIO
    TITLE "0:"
    INDEX 01 16:56:42
  TRACK 758 AUDIO
    TITLE "14:cjc171_07379"
    INDEX 01 16:57:02
  TRACK 759 AUDIO
    TITLE "0:"
    INDEX 01 17:00:20
  TRACK 760 AUDIO
    TITLE "15:cjc171_07380"
    INDEX 01 17:00:40
  TRACK 761 AUDIO
    TITLE "0:"
    INDEX 01 17:03:58
  TRACK 762 AUDIO
    TITLE "11:cjc171_07381"
    INDEX 01 17:04:51
  TRACK 763 AUDIO
    TITLE "0:"
    INDEX 01 17:05:51
  TRACK 764 AUDIO
    TITLE "12:cjc171_07382"
    INDEX 01 17:06:13
  TRACK 765 AUDIO
    TITLE "0:"
    INDEX 01 17:07:50
  TRACK 766 AUDIO
    TITLE "13:cjc171_07383"
    INDEX 01 17:08:49
  TRACK 767 AUDIO
    TITLE "0:"
    INDEX 01 17:10:52
  TRACK 768 AUDIO
    TITLE "14:cjc171_07384"
    INDEX 01 17:11:10
  TRACK 769 AUDIO
    TITLE "0:"
    INDEX 01 17:12:73
  TRACK 770 AUDIO
    TITLE "15:cjc171_07385"
    INDEX 01 17:13:19
  TRACK 771 AUDIO
    TITLE "0:"
    INDEX 01 17:15:08
  TRACK 772 AUDIO
    TITLE "11:cjc171_07386"
    INDEX 01 17:16:04
  TRACK 773 AUDIO
    TITLE "0:"
    INDEX 01 17:17:23
  TRACK 774 AUDIO
    TITLE "12:cjc171_07387"
    INDEX 01 17:17:62
  TRACK 775 AUDIO
    TITLE "0:"
    INDEX 01 17:20:00
  TRACK 776 AUDIO
    TITLE "13:cjc171_07388"
    INDEX 01 17:20:74
  TRACK 777 AUDIO
    TITLE "0:"
    INDEX 01 17:22:69
  TRACK 778 AUDIO
    TITLE "14:cjc171_07389"
    INDEX 01 17:23:39
  TRACK 779 AUDIO
    TITLE "0:"
    INDEX 01 17:25:40
  TRACK 780 AUDIO
    TITLE "15:cjc171_07390"
    INDEX 01 17:25:69
  TRACK 781 AUDIO
    TITLE "0:"
    INDEX 01 17:27:70
  TRACK 782 AUDIO
    TITLE "11:cjc171_07391"
    INDEX 01 17:28:64
  TRACK 783 AUDIO
    TITLE "0:"
    INDEX 01 17:29:65
  TRACK 784 AUDIO
    TITLE "12:cjc171_07392"
    INDEX 01 17:30:29
  TRACK 785 AUDIO
    TITLE "0:"
    INDEX 01 17:31:35
  TRACK 786 AUDIO
    TITLE "13:cjc171_07393"
    INDEX 01 17:32:30
  TRACK 787 AUDIO
    TITLE "0:"
    INDEX 01 17:34:41
  TRACK 788 AUDIO
    TITLE "14:cjc171_07394"
    INDEX 01 17:35:01
  TRACK 789 AUDIO
    TITLE "0:"
    INDEX 01 17:37:61
  TRACK 790 AUDIO
    TITLE "15:cjc171_07395"
    INDEX 01 17:38:05
  TRACK 791 AUDIO
    TITLE "0:"
    INDEX 01 17:40:65
  TRACK 792 AUDIO
    TITLE "11:cjc171_07396"
    INDEX 01 17:41:60
  TRACK 793 AUDIO
    TITLE "0:"
    INDEX 01 17:43:04
  TRACK 794 AUDIO
    TITLE "12:cjc171_07397"
    INDEX 01 17:43:44
  TRACK 795 AUDIO
    TITLE "0:"
    INDEX 01 17:44:61
  TRACK 796 AUDIO
    TITLE "13:cjc171_07398"
    INDEX 01 17:45:60
  TRACK 797 AUDIO
    TITLE "0:"
    INDEX 01 17:47:65
  TRACK 798 AUDIO
    TITLE "14:cjc171_07399"
    INDEX 01 17:48:23
  TRACK 799 AUDIO
    TITLE "0:"
    INDEX 01 17:50:16
  TRACK 800 AUDIO
    TITLE "15:cjc171_07400"
    INDEX 01 17:50:38
  TRACK 801 AUDIO
    TITLE "0:"
    INDEX 01 17:52:29
  TRACK 802 AUDIO
    TITLE "11:cjc171_07401"
    INDEX 01 17:53:30
  TRACK 803 AUDIO
    TITLE "0:"
    INDEX 01 17:54:43
  TRACK 804 AUDIO
    TITLE "12:cjc171_07402"
    INDEX 01 17:55:08
  TRACK 805 AUDIO
    TITLE "0:"
    INDEX 01 17:57:63
  TRACK 806 AUDIO
    TITLE "13:cjc171_07403"
    INDEX 01 17:58:65
  TRACK 807 AUDIO
    TITLE "0:"
    INDEX 01 18:01:38
  TRACK 808 AUDIO
    TITLE "14:cjc171_07404"
    INDEX 01 18:02:02
  TRACK 809 AUDIO
    TITLE "0:"
    INDEX 01 18:04:58
  TRACK 810 AUDIO
    TITLE "15:cjc171_07405"
    INDEX 01 18:05:12
  TRACK 811 AUDIO
    TITLE "0:"
    INDEX 01 18:07:68
  TRACK 812 AUDIO
    TITLE "11:cjc171_07406"
    INDEX 01 18:08:73
  TRACK 813 AUDIO
    TITLE "0:"
    INDEX 01 18:10:19
  TRACK 814 AUDIO
    TITLE "12:cjc171_07407"
    INDEX 01 18:10:60
  TRACK 815 AUDIO
    TITLE "0:"
    INDEX 01 18:13:37
  TRACK 816 AUDIO
    TITLE "13:cjc171_07408"
    INDEX 01 18:14:32
  TRACK 817 AUDIO
    TITLE "0:"
    INDEX 01 18:17:23
  TRACK 818 AUDIO
    TITLE "14:cjc171_07409"
    INDEX 01 18:17:64
  TRACK 819 AUDIO
    TITLE "0:"
    INDEX 01 18:20:37
  TRACK 820 AUDIO
    TITLE "15:cjc171_07410"
    INDEX 01 18:20:64
  TRACK 821 AUDIO
    TITLE "0:"
    INDEX 01 18:23:39
  TRACK 822 AUDIO
    TITLE "11:cjc171_07411"
    INDEX 01 18:24:43
  TRACK 823 AUDIO
    TITLE "0:"
    INDEX 01 18:25:54
  TRACK 824 AUDIO
    TITLE "12:cjc171_07412"
    INDEX 01 18:26:16
  TRACK 825 AUDIO
    TITLE "0:"
    INDEX 01 18:27:43
  TRACK 826 AUDIO
    TITLE "13:cjc171_07413"
    INDEX 01 18:28:42
  TRACK 827 AUDIO
    TITLE "0:"
    INDEX 01 18:31:49
  TRACK 828 AUDIO
    TITLE "14:cjc171_07414"
    INDEX 01 18:32:13
  TRACK 829 AUDIO
    TITLE "0:"
    INDEX 01 18:34:25
  TRACK 830 AUDIO
    TITLE "15:cjc171_07415"
    INDEX 01 18:34:55
  TRACK 831 AUDIO
    TITLE "0:"
    INDEX 01 18:36:67
  TRACK 832 AUDIO
    TITLE "11:cjc171_07416"
    INDEX 01 18:37:73
  TRACK 833 AUDIO
    TITLE "0:"
    INDEX 01 18:39:19
  TRACK 834 AUDIO
    TITLE "12:cjc171_07417"
    INDEX 01 18:39:52
  TRACK 835 AUDIO
    TITLE "0:"
    INDEX 01 18:41:04
  TRACK 836 AUDIO
    TITLE "13:cjc171_07418"
    INDEX 01 18:42:05
  TRACK 837 AUDIO
    TITLE "0:"
    INDEX 01 18:43:65
  TRACK 838 AUDIO
    TITLE "14:cjc171_07419"
    INDEX 01 18:44:24
  TRACK 839 AUDIO
    TITLE "0:"
    INDEX 01 18:46:13
  TRACK 840 AUDIO
    TITLE "15:cjc171_07420"
    INDEX 01 18:46:34
  TRACK 841 AUDIO
    TITLE "0:"
    INDEX 01 18:48:22
  TRACK 842 AUDIO
    TITLE "11:cjc171_07421"
    INDEX 01 18:49:25
  TRACK 843 AUDIO
    TITLE "0:"
    INDEX 01 18:50:46
  TRACK 844 AUDIO
    TITLE "12:cjc171_07422"
    INDEX 01 18:51:10
  TRACK 845 AUDIO
    TITLE "0:"
    INDEX 01 18:53:34
  TRACK 846 AUDIO
    TITLE "13:cjc171_07423"
    INDEX 01 18:54:34
  TRACK 847 AUDIO
    TITLE "0:"
    INDEX 01 18:56:56
  TRACK 848 AUDIO
    TITLE "14:cjc171_07424"
    INDEX 01 18:57:21
  TRACK 849 AUDIO
    TITLE "0:"
    INDEX 01 18:59:61
  TRACK 850 AUDIO
    TITLE "15:cjc171_07425"
    INDEX 01 19:00:15
  TRACK 851 AUDIO
    TITLE "0:"
    INDEX 01 19:02:55
  TRACK 852 AUDIO
    TITLE "11:cjc171_07426"
    INDEX 01 19:03:60
  TRACK 853 AUDIO
    TITLE "0:"
    INDEX 01 19:05:18
  TRACK 854 AUDIO
    TITLE "12:cjc171_07427"
    INDEX 01 19:05:57
  TRACK 855 AUDIO
    TITLE "0:"
    INDEX 01 19:09:10
  TRACK 856 AUDIO
    TITLE "13:cjc171_07428"
    INDEX 01 19:10:09
  TRACK 857 AUDIO
    TITLE "0:"
    INDEX 01 19:11:68
  TRACK 858 AUDIO
    TITLE "14:cjc171_07429"
    INDEX 01 19:12:30
  TRACK 859 AUDIO
    TITLE "0:"
    INDEX 01 19:14:48
  TRACK 860 AUDIO
    TITLE "15:cjc171_07430"
    INDEX 01 19:15:05
  TRACK 861 AUDIO
    TITLE "0:"
    INDEX 01 19:17:23
  TRACK 862 AUDIO
    TITLE "11:cjc171_07431"
    INDEX 01 19:18:31
  TRACK 863 AUDIO
    TITLE "0:"
    INDEX 01 19:19:53
  TRACK 864 AUDIO
    TITLE "12:cjc171_07432"
    INDEX 01 19:20:18
  TRACK 865 AUDIO
    TITLE "0:"
    INDEX 01 19:21:41
  TRACK 866 AUDIO
    TITLE "13:cjc171_07433"
    INDEX 01 19:22:30
  TRACK 867 AUDIO
    TITLE "0:"
    INDEX 01 19:24:35
  TRACK 868 AUDIO
    TITLE "14:cjc171_07434"
    INDEX 01 19:24:74
  TRACK 869 AUDIO
    TITLE "0:"
    INDEX 01 19:27:31
  TRACK 870 AUDIO
    TITLE "15:cjc171_07435"
    INDEX 01 19:27:63
  TRACK 871 AUDIO
    TITLE "0:"
    INDEX 01 19:30:20
  TRACK 872 AUDIO
    TITLE "11:cjc171_07436"
    INDEX 01 19:31:25
  TRACK 873 AUDIO
    TITLE "0:"
    INDEX 01 19:32:42
  TRACK 874 AUDIO
    TITLE "12:cjc171_07437"
    INDEX 01 19:33:07
  TRACK 875 AUDIO
    TITLE "0:"
    INDEX 01 19:34:59
  TRACK 876 AUDIO
    TITLE "13:cjc171_07438"
    INDEX 01 19:35:56
  TRACK 877 AUDIO
    TITLE "0:"
    INDEX 01 19:38:39
  TRACK 878 AUDIO
    TITLE "14:cjc171_07439"
    INDEX 01 19:39:05
  TRACK 879 AUDIO
    TITLE "0:"
    INDEX 01 19:41:51
  TRACK 880 AUDIO
    TITLE "15:cjc171_07440"
    INDEX 01 19:42:06
  TRACK 881 AUDIO
    TITLE "0:"
    INDEX 01 19:44:49
  TRACK 882 AUDIO
    TITLE "11:cjc171_07441"
    INDEX 01 19:45:55
  TRACK 883 AUDIO
    TITLE "0:"
    INDEX 01 19:47:07
  TRACK 884 AUDIO
    TITLE "12:cjc171_07442"
    INDEX 01 19:47:48
  TRACK 885 AUDIO
    TITLE "0:"
    INDEX 01 19:51:16
  TRACK 886 AUDIO
    TITLE "13:cjc171_07443"
    INDEX 01 19:52:14
  TRACK 887 AUDIO
    TITLE "0:"
    INDEX 01 19:53:72
  TRACK 888 AUDIO
    TITLE "14:cjc171_07444"
    INDEX 01 19:54:36
  TRACK 889 AUDIO
    TITLE "0:"
    INDEX 01 19:56:29
  TRACK 890 AUDIO
    TITLE "15:cjc171_07445"
    INDEX 01 19:56:60
  TRACK 891 AUDIO
    TITLE "0:"
    INDEX 01 19:58:52
  TRACK 892 AUDIO
    TITLE "11:cjc171_07446"
    INDEX 01 19:59:57
  TRACK 893 AUDIO
    TITLE "0:"
    INDEX 01 20:01:03
  TRACK 894 AUDIO
    TITLE "12:cjc171_07447"
    INDEX 01 20:01:42
  TRACK 895 AUDIO
    TITLE "0:"
    INDEX 01 20:05:30
  TRACK 896 AUDIO
    TITLE "13:cjc171_07448"
    INDEX 01 20:06:30
  TRACK 897 AUDIO
    TITLE "0:"
    INDEX 01 20:08:58
  TRACK 898 AUDIO
    TITLE "14:cjc171_07449"
    INDEX 01 20:09:22
  TRACK 899 AUDIO
    TITLE "0:"
    INDEX 01 20:11:60
  TRACK 900 AUDIO
    TITLE "15:cjc171_07450"
    INDEX 01 20:12:16
  TRACK 901 AUDIO
    TITLE "0:"
    INDEX 01 20:14:56
  TRACK 902 AUDIO
    TITLE "11:cjc171_07451"
    INDEX 01 20:15:54
  TRACK 903 AUDIO
    TITLE "0:"
    INDEX 01 20:16:71
  TRACK 904 AUDIO
    TITLE "12:cjc171_07452"
    INDEX 01 20:17:33
  TRACK 905 AUDIO
    TITLE "0:"
    INDEX 01 20:19:63
  TRACK 906 AUDIO
    TITLE "13:cjc171_07453"
    INDEX 01 20:20:65
  TRACK 907 AUDIO
    TITLE "0:"
    INDEX 01 20:22:31
  TRACK 908 AUDIO
    TITLE "14:cjc171_07454"
    INDEX 01 20:22:60
  TRACK 909 AUDIO
    TITLE "0:"
    INDEX 01 20:24:73
  TRACK 910 AUDIO
    TITLE "15:cjc171_07455"
    INDEX 01 20:25:19
  TRACK 911 AUDIO
    TITLE "0:"
    INDEX 01 20:27:30
  TRACK 912 AUDIO
    TITLE "11:cjc171_07456"
    INDEX 01 20:28:27
  TRACK 913 AUDIO
    TITLE "0:"
    INDEX 01 20:29:56
  TRACK 914 AUDIO
    TITLE "12:cjc171_07457"
    INDEX 01 20:30:14
  TRACK 915 AUDIO
    TITLE "0:"
    INDEX 01 20:32:37
  TRACK 916 AUDIO
    TITLE "13:cjc171_07458"
    INDEX 01 20:33:28
  TRACK 917 AUDIO
    TITLE "0:"
    INDEX 01 20:35:35
  TRACK 918 AUDIO
    TITLE "14:cjc171_07459"
    INDEX 01 20:35:68
  TRACK 919 AUDIO
    TITLE "0:"
    INDEX 01 20:38:10
  TRACK 920 AUDIO
    TITLE "15:cjc171_07460"
    INDEX 01 20:38:28
  TRACK 921 AUDIO
    TITLE "0:"
    INDEX 01 20:40:42
  TRACK 922 AUDIO
    TITLE "11:cjc171_07461"
    INDEX 01 20:41:36
  TRACK 923 AUDIO
    TITLE "0:"
    INDEX 01 20:42:55
  TRACK 924 AUDIO
    TITLE "12:cjc171_07462"
    INDEX 01 20:43:17
  TRACK 925 AUDIO
    TITLE "0:"
    INDEX 01 20:45:65
  TRACK 926 AUDIO
    TITLE "13:cjc171_07463"
    INDEX 01 20:46:64
  TRACK 927 AUDIO
    TITLE "0:"
    INDEX 01 20:48:46
  TRACK 928 AUDIO
    TITLE "14:cjc171_07464"
    INDEX 01 20:49:06
  TRACK 929 AUDIO
    TITLE "0:"
    INDEX 01 20:51:26
  TRACK 930 AUDIO
    TITLE "15:cjc171_07465"
    INDEX 01 20:51:48
  TRACK 931 AUDIO
    TITLE "0:"
    INDEX 01 20:53:68
  TRACK 932 AUDIO
    TITLE "11:cjc171_07466"
    INDEX 01 20:54:64
  TRACK 933 AUDIO
    TITLE "0:"
    INDEX 01 20:55:67
  TRACK 934 AUDIO
    TITLE "12:cjc171_07467"
    INDEX 01 20:56:27
  TRACK 935 AUDIO
    TITLE "0:"
    INDEX 01 20:57:68
  TRACK 936 AUDIO
    TITLE "13:cjc171_07468"
    INDEX 01 20:58:64
  TRACK 937 AUDIO
    TITLE "0:"
    INDEX 01 21:01:09
  TRACK 938 AUDIO
    TITLE "14:cjc171_07469"
    INDEX 01 21:01:44
  TRACK 939 AUDIO
    TITLE "0:"
    INDEX 01 21:03:27
  TRACK 940 AUDIO
    TITLE "15:cjc171_07470"
    INDEX 01 21:03:47
  TRACK 941 AUDIO
    TITLE "0:"
    INDEX 01 21:05:30
  TRACK 942 AUDIO
    TITLE "11:cjc171_07471"
    INDEX 01 21:06:24
  TRACK 943 AUDIO
    TITLE "0:"
    INDEX 01 21:07:63
  TRACK 944 AUDIO
    TITLE "12:cjc171_07472"
    INDEX 01 21:08:25
  TRACK 945 AUDIO
    TITLE "0:"
    INDEX 01 21:10:47
  TRACK 946 AUDIO
    TITLE "13:cjc171_07473"
    INDEX 01 21:11:51
  TRACK 947 AUDIO
    TITLE "0:"
    INDEX 01 21:14:45
  TRACK 948 AUDIO
    TITLE "14:cjc171_07474"
    INDEX 01 21:15:05
  TRACK 949 AUDIO
    TITLE "0:"
    INDEX 01 21:18:58
  TRACK 950 AUDIO
    TITLE "15:cjc171_07475"
    INDEX 01 21:19:07
  TRACK 951 AUDIO
    TITLE "0:"
    INDEX 01 21:22:58
  TRACK 952 AUDIO
    TITLE "11:cjc171_07476"
    INDEX 01 21:23:54
  TRACK 953 AUDIO
    TITLE "0:"
    INDEX 01 21:24:73
  TRACK 954 AUDIO
    TITLE "12:cjc171_07477"
    INDEX 01 21:25:29
  TRACK 955 AUDIO
    TITLE "0:"
    INDEX 01 21:27:57
  TRACK 956 AUDIO
    TITLE "13:cjc171_07478"
    INDEX 01 21:28:57
  TRACK 957 AUDIO
    TITLE "0:"
    INDEX 01 21:30:62
  TRACK 958 AUDIO
    TITLE "14:cjc171_07479"
    INDEX 01 21:31:22
  TRACK 959 AUDIO
    TITLE "0:"
    INDEX 01 21:33:25
  TRACK 960 AUDIO
    TITLE "15:cjc171_07480"
    INDEX 01 21:33:52
  TRACK 961 AUDIO
    TITLE "0:"
    INDEX 01 21:35:53
  TRACK 962 AUDIO
    TITLE "11:cjc171_07481"
    INDEX 01 21:36:56
  TRACK 963 AUDIO
    TITLE "0:"
    INDEX 01 21:37:71
  TRACK 964 AUDIO
    TITLE "12:cjc171_07482"
    INDEX 01 21:38:32
  TRACK 965 AUDIO
    TITLE "0:"
    INDEX 01 21:41:32
  TRACK 966 AUDIO
    TITLE "13:cjc171_07483"
    INDEX 01 21:42:31
  TRACK 967 AUDIO
    TITLE "0:"
    INDEX 01 21:44:54
  TRACK 968 AUDIO
    TITLE "14:cjc171_07484"
    INDEX 01 21:45:12
  TRACK 969 AUDIO
    TITLE "0:"
    INDEX 01 21:47:33
  TRACK 970 AUDIO
    TITLE "15:cjc171_07485"
    INDEX 01 21:47:52
  TRACK 971 AUDIO
    TITLE "0:"
    INDEX 01 21:49:73
  TRACK 972 AUDIO
    TITLE "11:cjc171_07486"
    INDEX 01 21:50:68
  TRACK 973 AUDIO
    TITLE "0:"
    INDEX 01 21:51:72
  TRACK 974 AUDIO
    TITLE "12:cjc171_07487"
    INDEX 01 21:52:34
  TRACK 975 AUDIO
    TITLE "0:"
    INDEX 01 21:54:46
  TRACK 976 AUDIO
    TITLE "13:cjc171_07488"
    INDEX 01 21:55:44
  TRACK 977 AUDIO
    TITLE "0:"
    INDEX 01 21:57:41
  TRACK 978 AUDIO
    TITLE "14:cjc171_07489"
    INDEX 01 21:58:05
  TRACK 979 AUDIO
    TITLE "0:"
    INDEX 01 22:00:22
  TRACK 980 AUDIO
    TITLE "15:cjc171_07490"
    INDEX 01 22:00:51
  TRACK 981 AUDIO
    TITLE "0:"
    INDEX 01 22:02:69
  TRACK 982 AUDIO
    TITLE "11:cjc171_07491"
    INDEX 01 22:03:69
  TRACK 983 AUDIO
    TITLE "0:"
    INDEX 01 22:05:07
  TRACK 984 AUDIO
    TITLE "12:cjc171_07492"
    INDEX 01 22:05:44
  TRACK 985 AUDIO
    TITLE "0:"
    INDEX 01 22:07:29
  TRACK 986 AUDIO
    TITLE "13:cjc171_07493"
    INDEX 01 22:08:27
  TRACK 987 AUDIO
    TITLE "0:"
    INDEX 01 22:10:24
  TRACK 988 AUDIO
    TITLE "14:cjc171_07494"
    INDEX 01 22:10:57
  TRACK 989 AUDIO
    TITLE "0:"
    INDEX 01 22:12:25
  TRACK 990 AUDIO
    TITLE "15:cjc171_07495"
    INDEX 01 22:12:50
  TRACK 991 AUDIO
    TITLE "0:"
    INDEX 01 22:14:16
  TRACK 992 AUDIO
    TITLE "11:cjc171_07496"
    INDEX 01 22:15:21
  TRACK 993 AUDIO
    TITLE "0:"
    INDEX 01 22:16:46
  TRACK 994 AUDIO
    TITLE "12:cjc171_07497"
    INDEX 01 22:17:04
  TRACK 995 AUDIO
    TITLE "0:"
    INDEX 01 22:19:37
  TRACK 996 AUDIO
    TITLE "13:cjc171_07498"
    INDEX 01 22:20:38
  TRACK 997 AUDIO
    TITLE "0:"
    INDEX 01 22:22:11
  TRACK 998 AUDIO
    TITLE "14:cjc171_07499"
    INDEX 01 22:22:47
  TRACK 999 AUDIO
    TITLE "0:"
    INDEX 01 22:24:40
  TRACK 1000 AUDIO
    TITLE "15:cjc171_07500"
    INDEX 01 22:24:59
  TRACK 1001 AUDIO
    TITLE "0:"
    INDEX 01 22:26:52
